<svg width="1057" height="1102" viewBox="0 0 1057 1102" fill="none" xmlns="http://www.w3.org/2000/svg">
<path fill-rule="evenodd" clip-rule="evenodd" d="M440.424 42.7613L466.352 103.452C400.706 128.826 341.068 168.611 292.319 220.1L240.188 178.021C296.667 118.978 365.144 72.9318 440.424 42.7613Z" fill="#CDC5C2"/>
<path fill-rule="evenodd" clip-rule="evenodd" d="M200.463 593.537L164.408 604.452C132.859 472.755 151.485 334.094 214.818 216.011L247.051 233.509C186.079 342.149 168.674 471.607 200.463 593.537Z" fill="#BF2E2F"/>
<path fill-rule="evenodd" clip-rule="evenodd" d="M1033.27 219.625L959.584 263.931C923.251 198.435 871.683 141.918 808.921 99.7603L853.811 25.1195C927.863 75.7107 989.141 142.49 1033.27 219.625Z" fill="#A12213"/>
<path fill-rule="evenodd" clip-rule="evenodd" d="M983.955 458.55L956.493 455.655C956.442 424.517 953.339 393.328 947.139 362.572L976.324 364.444C981.671 395.616 984.202 427.116 983.955 458.55Z" fill="#D2C5BD"/>
<path fill-rule="evenodd" clip-rule="evenodd" d="M376.167 898.093L387.564 859.944L411.326 807.663C525.452 845.915 650.708 842.355 762.811 796.132L799.291 883.26C664.055 938.425 513.554 943.06 376.167 898.093Z" fill="#DED5D8"/>
<rect x="309" y="167.773" width="18.4942" height="40.2703" transform="rotate(-43.6721 309 167.773)" fill="#D75852"/>
<rect x="318" y="144.109" width="21.8754" height="40.2703" transform="rotate(-43.6721 318 144.109)" fill="#01060C"/>
<path fill-rule="evenodd" clip-rule="evenodd" d="M523.438 860.57L521.548 808.6C605.603 811.092 689.417 792.557 764.682 754.323L784.8 800.352C703.533 840.988 613.729 861.496 523.438 860.57Z" fill="#000206"/>
</svg>
