<svg width="910" height="937" viewBox="0 0 910 937" fill="none" xmlns="http://www.w3.org/2000/svg">
<path fill-rule="evenodd" clip-rule="evenodd" d="M0 779.177L99.8003 698C137.732 747.812 186.414 788.994 242.386 818.089L192.303 936.551C116.851 899.182 51.1392 845.114 0 779.177Z" fill="#A71C17"/>
<path fill-rule="evenodd" clip-rule="evenodd" d="M199.369 23.5359L225.081 67.142C158.998 103.059 101.836 154.416 59.0795 217.169L15.0092 190.144C63.2404 121.128 126.527 64.2403 199.369 23.5359Z" fill="#AE3431"/>
<path fill-rule="evenodd" clip-rule="evenodd" d="M675.84 172.35L642.174 210.155C587.784 158.205 521.419 119.468 448.604 97.9287L460.871 47.7087C541.323 72.5474 614.826 115.427 675.84 172.35Z" fill="#AE3431"/>
<path fill-rule="evenodd" clip-rule="evenodd" d="M797.216 301.252L780.009 311.322C770.562 291.231 759.797 271.76 747.781 253.05L764.486 242.035C776.595 261.104 787.524 280.884 797.216 301.252Z" fill="#001017"/>
<path fill-rule="evenodd" clip-rule="evenodd" d="M778.556 580.391L729.433 567.039C744.306 484.802 737.395 399.289 708.474 319.827L753.704 292.009C787.563 384.679 795.759 484.43 778.556 580.391Z" fill="#C64A2C"/>
<path fill-rule="evenodd" clip-rule="evenodd" d="M273.905 810.255L278.698 798.47C317.013 810.706 356.722 818.441 396.957 821.441L396.819 834.463C355.017 831.046 313.768 822.902 273.905 810.255Z" fill="#C64A2C"/>
</svg>
